<?xml version="1.0" encoding="UTF-8"?>
<svg xmlns="http://www.w3.org/2000/svg" width="24" height="24" viewBox="0 0 24 24" fill="none">
  <path d="M17.8933 14.6862L17.8862 8.61216C17.8847 8.08379 17.6741 7.57751 17.3005 7.20389C16.9268 6.83028 16.4206 6.61969 15.8922 6.61812L9.81814 6.61105C9.55396 6.61183 9.30082 6.71713 9.11401 6.90393C8.9272 7.09074 8.82191 7.34388 8.82112 7.60807C8.82058 7.74008 8.84618 7.87089 8.89645 7.99295C8.94672 8.11502 9.02066 8.22593 9.11401 8.31927C9.20735 8.41262 9.31826 8.48656 9.44032 8.53683C9.56239 8.5871 9.6932 8.6127 9.82521 8.61216H14.478L6.6998 16.3903C6.51226 16.5779 6.40691 16.8322 6.40691 17.0974C6.40691 17.3627 6.51226 17.617 6.6998 17.8045C6.88734 17.9921 7.14169 18.0974 7.40691 18.0974C7.67212 18.0974 7.92648 17.9921 8.11401 17.8045L15.8922 10.0264L15.8922 14.6791C15.8913 14.9445 15.9958 15.1994 16.1827 15.3877C16.3697 15.576 16.6238 15.6823 16.8892 15.6832C17.1546 15.6842 17.4094 15.5796 17.5977 15.3927C17.786 15.2057 17.8924 14.9516 17.8933 14.6862Z" fill="#374957"></path>
</svg>
