<?xml version="1.0" encoding="UTF-8"?>
<svg xmlns="http://www.w3.org/2000/svg" width="362" height="42" viewBox="0 0 362 42" fill="none">
  <path d="M262.445 31.3629C262.377 32.391 262.746 33.4054 263.486 34.1319C264.375 34.6939 265.429 34.9543 266.483 34.8858C269.536 34.8858 269.946 32.9256 269.946 32.2402C269.946 30.1018 267.072 29.9236 262.801 29.1834C260.789 28.8407 254.684 27.9772 254.684 21.4523C254.684 12.8577 262.336 10.5 269.536 10.5C275.873 10.5 283.58 11.8845 282.95 19.9582H272.753C272.958 19.0809 272.643 18.1625 271.945 17.6005C271.165 17.0659 270.234 16.8055 269.289 16.8466C267.743 16.8466 266.059 17.4772 266.059 19.2728C266.059 20.8903 267.154 21.3564 268.646 21.5209C277.105 22.6723 281.308 24.5228 281.308 30.8009C281.308 37.7232 275.381 41.9315 266.168 41.9315C259.721 41.9315 251.714 40.3688 251.946 31.3766H262.432L262.445 31.3629Z" fill="#AEB0B3"></path>
  <path d="M301.895 10.5C310.642 10.5 316.404 14.53 316.404 23.5907C316.404 31.2533 312.147 41.9315 298.377 41.9315C290.137 41.9315 283.47 37.9563 283.47 27.9223C283.47 18.3407 289.685 10.5 301.895 10.5ZM298.897 33.611C303.387 33.611 305.002 26.9765 305.002 24.3858C305.002 20.8081 304.085 18.7931 301.033 18.7931C296.488 18.7931 294.873 25.6606 294.873 28.7722C294.873 31.1984 295.68 33.611 298.911 33.611H298.897Z" fill="#AEB0B3"></path>
  <path d="M321.401 18.2859H316.678L318.239 11.2539H322.852C324.631 2.4262 327.752 0.0136719 336.677 0.0136719C338.689 0.0136719 340.646 0.19187 342.672 0.301531L341.057 7.8544C340.044 7.71733 339.031 7.6625 338.005 7.6762C335.76 7.6762 334.843 8.53978 334.268 11.2539H340.085L338.593 18.2859H332.83L328.108 41.1775H316.706L321.428 18.2859H321.401Z" fill="#AEB0B3"></path>
  <path d="M355.84 11.2401H362L360.385 18.2721H354.335L352.322 27.8948C352.035 28.8681 351.871 29.8824 351.816 30.8968C351.816 31.8837 352.322 32.6788 354.129 32.6788C355.936 32.6788 356.949 32.5691 357.866 32.5006L356.141 40.7525C354.102 41.1226 352.049 41.3694 349.982 41.5064C347.518 41.712 345.04 41.3008 342.782 40.3002C340.838 39.0939 339.661 36.9418 339.674 34.6526C339.729 33.2682 339.935 31.8974 340.304 30.5541L342.96 18.2721H337.881L339.497 11.2401H344.452L346.464 2.19312H357.866L355.854 11.2401H355.84Z" fill="#AEB0B3"></path>
  <path d="M209.253 11.8844C212.25 11.9667 214.755 9.59526 214.837 6.5933C214.92 3.59134 212.551 1.08286 209.554 1.00061C206.556 0.918366 204.051 3.28978 203.969 6.29173C203.969 6.34656 203.969 6.38769 203.969 6.44252C203.928 9.40335 206.296 11.8433 209.253 11.8844Z" fill="#329A2C"></path>
  <path d="M35.9863 2.00122L21.4083 2.02864V9.54039H23.9133V14.5162C21.3809 12.8987 18.438 12.0489 15.4402 12.0626C7.19988 11.7747 0.287305 18.231 -0.000148787 26.4692C-0.287602 34.7212 6.15957 41.6298 14.3999 41.9177C14.7421 41.9177 15.0843 41.9177 15.4265 41.9177C18.4653 41.9177 21.4357 41.0541 23.9817 39.4092L24.6387 40.8485H38.3955V32.9118H36.0684L35.9863 2.01493V2.00122ZM24.1596 28.1279C23.9954 31.3765 21.2304 33.8713 17.9862 33.7068C14.9748 33.5561 12.5657 31.1435 12.4151 28.1279V25.6331C12.5794 22.3844 15.3444 19.8896 18.5885 20.0541C21.5999 20.2049 24.0091 22.6174 24.1596 25.6331V28.1279ZM73.8207 32.9118L73.7386 20.5476C73.7386 15.6677 67.1682 11.5143 59.0511 11.5143C50.1263 11.5143 42.8305 15.1331 42.2145 19.7251L53.4525 20.7121C54.3149 19.2316 55.9301 18.3818 57.6275 18.5051C60.064 18.5051 62.0351 19.917 62.0351 21.6716V24.5913C58.8731 23.0286 55.3826 22.2473 51.851 22.2884C45.3628 22.2884 40.0928 26.7023 40.0928 32.1442C40.0928 37.5861 45.3491 41.9999 51.851 41.9999C55.3142 42.0547 58.7362 41.1638 61.734 39.4229V40.8622H76.1477V32.9118H73.8207ZM57.5864 35.1187C55.1499 35.1187 53.1788 33.6931 53.1788 31.9523C53.1788 30.2114 55.1499 28.7858 57.5864 28.7858C60.0229 28.7858 61.994 30.1977 61.994 31.9523C61.994 33.7068 60.0229 35.1187 57.5864 35.1187ZM119.238 12.0626C116.624 12.0626 114.256 13.6252 113.216 16.0241V12.7754H98.9387V20.575H101.43V32.9255H98.9387V40.8759L116.432 40.8485V32.8707H113.229V26.716C113.147 25.0025 113.599 23.2891 114.53 21.8498C115.036 24.0293 117.007 25.5508 119.252 25.4686C122.948 25.4138 125.891 22.3844 125.85 18.6833C125.795 15.0645 122.879 12.1311 119.252 12.0763L119.238 12.0626ZM143.549 11.6651C133.693 11.6651 125.699 17.9157 125.699 25.6331V27.9908C125.699 35.7081 133.693 41.9725 143.549 41.9725C153.404 41.9725 161.398 35.7218 161.398 27.9908V25.6331C161.398 17.9157 153.404 11.6651 143.549 11.6651ZM148.764 27.9908C148.764 31.4862 146.369 34.31 143.398 34.31C140.428 34.31 138.032 31.4725 138.032 27.9908V25.9346C138.032 22.4392 140.428 19.6155 143.398 19.6155C146.369 19.6155 148.764 22.4529 148.764 25.9346V27.9908ZM196.55 20.5613C196.55 15.8459 191.622 12.0352 185.531 12.0352C182.287 11.8981 179.083 12.8439 176.428 14.7356V12.9262H162.151V20.7258H164.656V33.0626H162.151V40.9993L178.933 40.9718V32.994H176.442V24.8243C176.401 22.5078 178.249 20.6024 180.562 20.5613C182.875 20.5202 184.778 22.3707 184.819 24.6735V24.8243L184.778 33.0352H182.287V40.9856L199.068 40.9581V32.9803H196.577V20.5476L196.55 20.5613ZM215.207 12.9124H200.93V20.7121H203.421V33.0626H200.93V41.013L217.712 40.9856V33.0077H215.221V12.9262L215.207 12.9124ZM241.461 31.637C240.311 33.2271 238.491 34.214 236.533 34.31C233.577 34.31 231.167 31.4725 231.167 27.9908V25.9346C231.167 22.4392 233.563 19.6155 236.533 19.6155C238.846 19.6155 240.544 21.3426 241.174 23.7688H250.44V12.7343H241.174V14.3929C238.805 12.8713 236.04 12.0763 233.221 12.1037C225.268 12.1037 218.821 18.1625 218.821 25.6331V27.9908C218.821 35.7081 226.814 41.9725 236.67 41.9725C243.624 41.9725 248.894 38.8609 251.412 34.31L241.461 31.637ZM91.7934 6.00383H79.5972V12.7617H77.0922V20.5476H79.5972V33.2271C79.5972 37.7643 81.1713 41.4379 91.3417 41.4379C92.9843 41.4379 94.6269 41.1912 96.201 40.6977L96.2558 32.7473C96.2421 32.6651 94.928 33.0077 94.4489 33.0077C92.7105 33.0077 91.8071 32.2675 91.8071 30.8282L91.8618 20.6161L96.2558 20.5476V12.748H91.7797V5.99012L91.7934 6.00383Z" fill="url(#paint0_linear_110_3249)"></path>
  <defs>
    <linearGradient id="paint0_linear_110_3249" x1="163.78" y1="-37.3669" x2="91.1199" y2="88.2977" gradientUnits="userSpaceOnUse">
      <stop stop-color="#82D97E"></stop>
      <stop offset="0.06" stop-color="#6BC767"></stop>
      <stop offset="0.15" stop-color="#56B651"></stop>
      <stop offset="0.24" stop-color="#45A940"></stop>
      <stop offset="0.36" stop-color="#3AA034"></stop>
      <stop offset="0.53" stop-color="#339B2D"></stop>
      <stop offset="1" stop-color="#329A2C"></stop>
    </linearGradient>
  </defs>
</svg>
