<?xml version="1.0" encoding="UTF-8"?>
<svg xmlns="http://www.w3.org/2000/svg" x="0px" y="0px" viewBox="0 0 32 32" fill="none" xml:space="preserve">
<g clip-path="url(#clip0_183_5399)">
<path d="M19.3401 32C20.41 32 21.3431 31.067 21.3431 29.997V25.3192H22.6805C23.483 25.3192 24.0179 24.7841 24.0179 23.9817V10.6211H7.98145V23.9818C7.98145 24.7843 8.51642 25.3193 9.31888 25.3193H10.6564V29.9971C10.6564 31.0671 11.5893 32.0001 12.6594 32.0001C13.7292 32.0001 14.6622 31.0671 14.6622 29.9971V25.3193H17.3372V29.9971C17.3371 31.067 18.2701 32 19.3401 32Z" fill="#329A2C"></path>
<path d="M27.3585 23.9818C28.4284 23.9818 29.3612 23.0489 29.3612 21.9788V12.6232C29.3612 11.559 28.4284 10.6211 27.3585 10.6211C26.2884 10.6211 25.3555 11.559 25.3555 12.6232V21.9788C25.3555 23.0488 26.2883 23.9818 27.3585 23.9818Z" fill="#329A2C"></path>
<path d="M4.64145 23.9818C5.71151 23.9818 6.64445 23.0489 6.64445 21.9788V12.6232C6.64445 11.559 5.71161 10.6211 4.64145 10.6211C3.57151 10.6211 2.63867 11.559 2.63867 12.6232V21.9788C2.63867 23.0488 3.57151 23.9818 4.64145 23.9818Z" fill="#329A2C"></path>
<path d="M22.4129 0.201816C22.1455 -0.067272 21.7474 -0.067272 21.48 0.201816L19.6862 1.98965L19.6035 2.0723C18.5398 1.53967 17.3473 1.27368 16.0193 1.27112C16.0128 1.27112 16.0064 1.27091 15.9998 1.27091H15.9996C15.9929 1.27091 15.9867 1.27112 15.98 1.27112C14.6521 1.27368 13.4595 1.53967 12.396 2.0723L12.313 1.98965L10.5193 0.201816C10.2517 -0.067272 9.85385 -0.067272 9.58647 0.201816C9.31888 0.469409 9.31888 0.866527 9.58647 1.13391L11.3217 2.86942C10.7626 3.24272 10.2556 3.69953 9.81466 4.22201C8.75913 5.47316 8.08588 7.10147 7.9933 8.8657C7.99244 8.88407 7.99063 8.90222 7.98977 8.92059C7.98412 9.04071 7.98145 9.16148 7.98145 9.28268H24.0179C24.0179 9.16148 24.015 9.04071 24.0096 8.92059C24.0087 8.90222 24.0069 8.88407 24.0058 8.8657C23.9135 7.10147 23.24 5.47306 22.1845 4.22212C21.7438 3.69964 21.2366 3.24283 20.6775 2.86952L22.4129 1.13401C22.6805 0.866527 22.6805 0.469409 22.4129 0.201816ZM12.6568 6.94749C12.1035 6.94749 11.6549 6.4989 11.6549 5.94556C11.6549 5.39222 12.1035 4.94364 12.6568 4.94364C13.2102 4.94364 13.6588 5.39222 13.6588 5.94556C13.6588 6.4989 13.2102 6.94749 12.6568 6.94749ZM19.3425 6.94749C18.7892 6.94749 18.3406 6.4989 18.3406 5.94556C18.3406 5.39222 18.7892 4.94364 19.3425 4.94364C19.8958 4.94364 20.3444 5.39222 20.3444 5.94556C20.3444 6.4989 19.8958 6.94749 19.3425 6.94749Z" fill="#329A2C"></path>
</g>
<defs>
<clipPath id="clip0_183_5399">
<rect width="32" height="32" fill="#329A2C"></rect>
</clipPath>
</defs>
</svg>
