<svg xmlns="http://www.w3.org/2000/svg" x="0px" y="0px" viewBox="0 0 32 26" fill="none" xml:space="preserve"><path d="M5.20245 12.0207C4.53538 12.6877 4.53538 13.7734 5.20245 14.447C5.86953 15.1141 6.95516 15.1141 7.62878 14.447C12.246 9.82978 19.7604 9.82978 24.3776 14.447C24.7111 14.7805 25.1493 14.9506 25.5875 14.9506C26.0257 14.9506 26.4639 14.7805 26.7974 14.447C27.4645 13.7799 27.4645 12.6943 26.7974 12.0207C20.846 6.06277 11.1538 6.06277 5.20245 12.0207Z" fill="white"></path><path d="M9.83234 16.651C9.16526 17.318 9.16526 18.4037 9.83234 19.0773C10.4994 19.7444 11.585 19.7444 12.2587 19.0773C14.3187 17.0107 17.6803 17.0107 19.7404 19.0773C20.0739 19.4108 20.5121 19.5809 20.9503 19.5809C21.3884 19.5809 21.8266 19.4108 22.1602 19.0773C22.8272 18.4102 22.8272 17.3246 22.1602 16.6575C18.7659 13.2502 13.2331 13.2502 9.83234 16.651Z" fill="white"></path><path d="M16.0002 25.0941C17.2608 25.0941 18.2827 24.0722 18.2827 22.8116C18.2827 21.5511 17.2608 20.5292 16.0002 20.5292C14.7397 20.5292 13.7178 21.5511 13.7178 22.8116C13.7178 24.0722 14.7397 25.0941 16.0002 25.0941Z" fill="white"></path><path d="M31.4997 7.31189C22.952 -1.22929 9.04803 -1.22929 0.500307 7.31189C-0.166769 7.97897 -0.166769 9.0646 0.500307 9.73822C1.16738 10.4053 2.25301 10.4053 2.92663 9.73822C10.1337 2.52464 21.8663 2.52464 29.0799 9.73822C29.4134 10.0718 29.8516 10.2418 30.2898 10.2418C30.728 10.2418 31.1662 10.0718 31.4997 9.73822C32.1668 9.07114 32.1668 7.98551 31.4997 7.31189Z" fill="white"></path></svg>