<?xml version="1.0" encoding="UTF-8"?>
<svg xmlns="http://www.w3.org/2000/svg" x="0px" y="0px" viewBox="0 0 70 70" fill="none" xml:space="preserve">
<rect x="3" y="3" width="64" height="64" rx="32" stroke="#329A2C" stroke-width="6"></rect>
<path d="M35 28.3125C38.9375 28.3125 42.1875 31.5625 42.1875 35.5C42.1875 39.5 38.9375 42.6875 35 42.6875C31 42.6875 27.8125 39.5 27.8125 35.5C27.8125 31.5625 31 28.3125 35 28.3125ZM35 40.1875C37.5625 40.1875 39.625 38.125 39.625 35.5C39.625 32.9375 37.5625 30.875 35 30.875C32.375 30.875 30.3125 32.9375 30.3125 35.5C30.3125 38.125 32.4375 40.1875 35 40.1875ZM44.125 28.0625C44.125 29 43.375 29.75 42.4375 29.75C41.5 29.75 40.75 29 40.75 28.0625C40.75 27.125 41.5 26.375 42.4375 26.375C43.375 26.375 44.125 27.125 44.125 28.0625ZM48.875 29.75C49 32.0625 49 39 48.875 41.3125C48.75 43.5625 48.25 45.5 46.625 47.1875C45 48.8125 43 49.3125 40.75 49.4375C38.4375 49.5625 31.5 49.5625 29.1875 49.4375C26.9375 49.3125 25 48.8125 23.3125 47.1875C21.6875 45.5 21.1875 43.5625 21.0625 41.3125C20.9375 39 20.9375 32.0625 21.0625 29.75C21.1875 27.5 21.6875 25.5 23.3125 23.875C25 22.25 26.9375 21.75 29.1875 21.625C31.5 21.5 38.4375 21.5 40.75 21.625C43 21.75 45 22.25 46.625 23.875C48.25 25.5 48.75 27.5 48.875 29.75ZM45.875 43.75C46.625 41.9375 46.4375 37.5625 46.4375 35.5C46.4375 33.5 46.625 29.125 45.875 27.25C45.375 26.0625 44.4375 25.0625 43.25 24.625C41.375 23.875 37 24.0625 35 24.0625C32.9375 24.0625 28.5625 23.875 26.75 24.625C25.5 25.125 24.5625 26.0625 24.0625 27.25C23.3125 29.125 23.5 33.5 23.5 35.5C23.5 37.5625 23.3125 41.9375 24.0625 43.75C24.5625 45 25.5 45.9375 26.75 46.4375C28.5625 47.1875 32.9375 47 35 47C37 47 41.375 47.1875 43.25 46.4375C44.4375 45.9375 45.4375 45 45.875 43.75Z" fill="#329A2C"></path>
</svg>
