<svg xmlns="http://www.w3.org/2000/svg" x="0px" y="0px" viewBox="0 0 32 32" fill="none" xml:space="preserve"><path d="M9 16H23C23.2652 16 23.5196 15.8946 23.7071 15.7071C23.8946 15.5196 24 15.2652 24 15C24 14.7348 23.8946 14.4804 23.7071 14.2929C23.5196 14.1054 23.2652 14 23 14H9C8.73478 14 8.48043 14.1054 8.29289 14.2929C8.10536 14.4804 8 14.7348 8 15C8 15.2652 8.10536 15.5196 8.29289 15.7071C8.48043 15.8946 8.73478 16 9 16Z" fill="white"></path><path d="M29 6H3C2.73502 6.00077 2.48111 6.10637 2.29374 6.29374C2.10637 6.48111 2.00077 6.73502 2 7V25C2.00077 25.265 2.10637 25.5189 2.29374 25.7063C2.48111 25.8936 2.73502 25.9992 3 26H29C29.265 25.9992 29.5189 25.8936 29.7063 25.7063C29.8936 25.5189 29.9992 25.265 30 25V7C29.9992 6.73502 29.8936 6.48111 29.7063 6.29374C29.5189 6.10637 29.265 6.00077 29 6ZM7 17V12H25V17H24C23.7349 17.0019 23.4807 17.1058 23.29 17.29L21.59 19H10.41L8.71 17.29C8.51933 17.1058 8.26512 17.0019 8 17H7Z" fill="white"></path></svg>