<?xml version="1.0" encoding="UTF-8"?>
<svg xmlns="http://www.w3.org/2000/svg" xmlns:xlink="http://www.w3.org/1999/xlink" version="1.1" x="0px" y="0px" viewBox="0 0 194 194" style="enable-background:new 0 0 194 194;" xml:space="preserve">
<style type="text/css">
	.st0{fill:#329A2C;}
	.st1{clip-path:url(#SVGID_00000088134325827736285290000008580917679731680411_);fill:#FFFFFF;}
	.st2{fill:#FFFFFF;}
</style>
<circle class="st0" cx="96.3" cy="97" r="90"></circle>
<g>
	<g>
		<defs>
			<circle id="SVGID_1_" cx="96.3" cy="97" r="77.5"></circle>
		</defs>
		<clipPath id="SVGID_00000010287576069749455210000004846414301070498481_">
			<use xlink:href="#SVGID_1_" style="overflow:visible;"></use>
		</clipPath>
		<path style="clip-path:url(#SVGID_00000010287576069749455210000004846414301070498481_);fill:#FFFFFF;" d="M206.8,234.9    c-1.9-19.7-5.9-39.4-12.4-58.1c-0.4-1.4-1.3-4.2-2.1-6.4c0,0,0,0,0,0c-2.5-7.9-5.5-15.7-9-23.2l0,0c-5.9-12.9-14.4-33.3-29-35.7    c-29.3-4.7-60.2,4.8-85.3,19.9c-5.9,3.5-12.3,7.1-16.5,12.7c-3.7,5-5.1,11.2-6,17.2c-0.3,2-0.5,4-0.7,6    c-3.8,38.3,2.5,84.9,5.5,95.1c1.5,5.1,2.3,8.5,8,9.5c10.2,1.8,20.5,3.2,30.8,3.9c27.1,2,54.7-0.4,80.6-9    c6.3-2.1,12.3-4.8,18.2-7.9c5.3-2.8,11.8-5.6,15.8-10.3C208,244.6,207.2,239.6,206.8,234.9z M105.6,154.3c0.5-0.6,1.2-0.9,1.7-1.2    l0.3-0.2c9.3-5.2,19.3-9.4,29.5-12.4c0.3-0.1,0.6-0.2,0.8-0.3c-0.2-0.5-0.4-0.9-0.5-1.4c-0.8-2-1.6-4.1-2.5-6.1    c-1.1-2.6-2.5-5.2-3.7-7.7l-0.7-1.3c-0.4-0.8-0.8-1.9-0.4-3c0.2-0.5,0.6-1.1,1.6-1.5c1.4-0.5,3.4,0.5,4,1.7c3.2,6.3,6,12,8.4,17.3    c0.1,0.2,0.2,0.4,0.2,0.4c0.1,0,0.2,0,0.4-0.1c6.2-1.4,12.3-2,18.2-1.8c0.9,0,2.1,0.2,2.9,1c0.7,0.7,1,1.6,0.7,2.5    c-0.4,1.1-1.5,1.9-3,2.1c-1.3,0.2-2.6,0.3-3.9,0.5c-2.7,0.3-5.4,0.6-8.1,1c-1.5,0.2-2.9,0.5-4.4,0.8c-0.1,0-0.3,0.1-0.4,0.1    c0.3,0.9,0.5,1.8,0.7,2.7c1.7,7,3.5,13.9,5.2,20.9c0.7,2.8-0.6,3.8-1.9,4.2c-0.4,0.1-0.7,0.1-1,0.1c-2,0-2.6-2.1-2.9-2.9    c-2.2-7.6-4.4-15.3-6.6-22.9c0-0.2-0.1-0.3-0.2-0.5c-0.2,0-0.3,0.1-0.5,0.1c-9.6,2.7-19.4,6.4-29.8,11.4c-0.1,0-0.2,0.1-0.3,0.1    c-0.5,0.2-1.1,0.6-1.8,0.6c0,0,0,0,0,0c-0.9,0-2.2-0.5-2.6-1.5C104.6,156.4,104.9,155,105.6,154.3z M65.2,251.6    c-2.9-5-4.2-10.2-5-15.6c-4.1-13.9-4.3-28.8-4.8-43c-0.3-7.3-0.4-14.6-0.4-21.9c0-2.7-0.1-5.4-0.1-8.1c0-0.4,0-0.9,0-1.3    c0.1-3.2,0.5-6.4,1.8-9.4c1.4-3.3,3.7-5.3,6.5-7.3c5.9-4.2,12.4-7.5,18.7-10.8c0.4-0.2,1-0.2,1.6-0.3c0.1,0.5,0.4,1,0.3,1.4    c-0.2,2.2-0.1,4.4-0.1,6.6c0.2,7.9,0.7,15.8,1.2,23.6c0.5,7.9,1.1,15.8,1.5,23.7c0.4,8.1,0.8,16.2,3.2,24.1    c0.9,3.2,2.5,8.5,7.1,9.5c2.4,0.5,4.7-0.6,6.9-1.2c7.8-2,15.7-3.8,23.7-5.2c7.8-1.3,15.9-2,23.9-1.4c1.2,0.1,2.6,0.1,3.8,0.4    c0.4,0.1,0.7,0.2,1,0.3c0.2,0.1,0.4,0.2,0.5,0.3c0.2,0.3,0,0.7-0.3,0.9c-0.4,0.2-0.8,0.2-1.3,0.2c-2.2,0.1-4.3,0.2-6.4,0.4    c-2.9,0.3-5.8,0.7-8.7,1.3c-15.2,3-29.2,8.8-42.9,14.7c-5.9,2.6-11.4,5.2-16.6,8.6c-4.4,2.9-8.9,5.9-12.4,9.6    C66.7,253.4,66.1,253.3,65.2,251.6z M143.8,269.3c-31.9,6.2-74.6-0.7-76.7-7.8c-2.1-7.1,25.7-24.7,56.5-33.3    c36.9-10.3,71.7-2.8,75.1,7C202.1,245,182.1,261.9,143.8,269.3z"></path>
	</g>
	<path class="st2" d="M173.2,89.5c-0.2-1.7-0.4-3.4-0.8-5c-0.2-1.2-0.5-2.5-0.7-3.7c-0.3-1.3-0.5-2.7-0.8-4c-0.5-1.9-1-3.8-1.6-5.7   c-0.6-1.8-1.3-3.6-2.1-5.4c-0.8-1.8-1.6-3.5-2.5-5.2c-0.9-1.7-1.8-3.3-2.8-4.9c-1-1.6-2.1-3.1-3.2-4.7c-1.1-1.5-2.3-3-3.5-4.4   c-1.2-1.4-2.5-2.8-3.8-4.1c-1.3-1.3-2.7-2.6-4.1-3.8c-1.4-1.2-2.9-2.4-4.4-3.5c-1.5-1.1-3-2.2-4.6-3.2c-1.6-1-3.2-1.9-4.8-2.8   c-1.6-0.9-3.3-1.7-5-2.5c-1.7-0.8-3.4-1.5-5.2-2.1c-1.8-0.6-3.5-1.2-5.3-1.7c-1.8-0.5-3.6-1-5.5-1.4c-1.8-0.4-3.7-0.7-5.6-1   c-1.9-0.3-3.8-0.5-5.6-0.6c-1.9-0.1-3.8-0.2-5.7-0.2c-1.9,0-3.8,0.1-5.7,0.3c-1.9,0.2-3.8,0.4-5.7,0.7c-1.9,0.3-3.8,0.7-5.7,1.2   c-1.9,0.5-3.8,1-5.7,1.6c-1.9,0.6-3.8,1.3-5.6,2.1c-1.9,0.8-3.7,1.6-5.5,2.6c-0.8,0.4-1.7,0.9-2.5,1.4C36.9,42.3,22.4,65,20.1,90.4   c-0.4,7.3,0.1,14.6,1.5,21.8l0,0c0,0,1.5,8.7,2.3,10.4c4.1,15.4,11.2,29,20.5,26.5c0.4-0.1,0.7-0.4,0.8-0.7c0.2-0.3,0.2-0.7,0-1.1   c-1.7-0.5-3.1-1.5-4.1-2.9c-5.2-8.7,21.1-27.2,57-40.9c33-12.6,62.8-16.6,69.5-10c1.3,1.1,1.9,2.9,1.3,4.6   c-1.3,4.3-3.8,8.2-7.2,11.1c-0.3,0.3-0.4,0.6-0.4,1c0,0.4,0.2,0.8,0.4,1c0.5,0.5,1.3,0.6,1.9,0.1c4.2-3.4,7.4-7.9,9.1-13   c0.2-0.7,0.3-1.4,0.4-2.1c0.1-0.7,0.2-1.5,0.2-2.2C173.4,92.5,173.3,91,173.2,89.5z M52.1,117.9c-4.4,3.1-12.1,8.7-15.3,14.9   c-1.3,2.4-2.4,0.5-3.2-0.8c-1.7-3.8-3.1-7.7-4.2-11.8c0,0,0,0,0,0c-0.5-1.9-2.2-8.1-2.3-9.9c0,0,0,0,0,0   c-1.3-6.7-1.8-13.6-1.5-20.5c2.2-23.4,15.6-44.3,36-56.1c1.8-1,3.7-2,5.6-2.8c1.8-0.8,9.2-3.6,1.9,2.9C56.9,44.9,49.4,60,47.9,76.4   c-0.7,8.4,1.7,24,6,35.5C55.2,115.4,54.1,116.4,52.1,117.9z M139,79.4c-0.5,0.8-1.4,1.3-2.3,1.5c-8.3,1.2-16.4,3.1-24.4,5.8   c-0.9,0.3-1.9,0.2-2.8-0.3c-0.8-0.5-1.4-1.3-1.6-2.3l-0.6-2.9c-0.2-0.7,0.2-1.5,0.9-1.8c9.3-3.7,19-6,29-6.7c0.7,0,1.4,0.5,1.5,1.2   l0.7,2.7C139.7,77.6,139.5,78.6,139,79.4z M154.8,64.8c-0.2,0.6-0.8,0.9-1.4,0.8c-22.9-3.4-54.8,8.3-54.8,8.3   c-11.1,3.6-21.6,8.6-31.4,14.8c-1.1,0.7-2.4,0.8-3.6,0.3c-1.2-0.5-2-1.5-2.3-2.8c-0.5-2.9-0.9-5.9-1-8.8   c-0.6-8.1,0.9-16.1,4.5-23.4c0.2-0.4,0.4-0.8,0.7-1.2c0-0.1,0.1-0.2,0.1-0.3l0.1-0.2l0.3-0.5l0.1-0.2c11.1-18.2,36-25.4,55.8-19.5   c10,3.1,18.9,8.7,25.9,16.5C148.8,50,156.2,60.3,154.8,64.8z"></path>
	<path id="Shape_00000062181155300239619920000008189932753617657245_" class="st2" d="M142.8,52.4c-3.4-5.8-8.6-10.3-14.8-13   c-6.9-2.9-14.4-4.1-21.9-3.3c-2.7,0.2-5.3,0.8-7.8,1.7c-0.5,0.1-0.8,0.6-0.8,1.1c0.1,0.5,0.5,0.9,1,0.9c5.6-0.6,11.3-0.4,16.9,0.5   c20.6,4.1,27.2,14,27.9,14.4c0.2,0.1,0.5-0.1,0.3-0.3C143.5,53.8,143.2,53.1,142.8,52.4"></path>
</g>
</svg>
