<?xml version="1.0" encoding="UTF-8"?>
<!-- Generator: Adobe Illustrator 26.5.2, SVG Export Plug-In . SVG Version: 6.00 Build 0)  -->
<svg xmlns="http://www.w3.org/2000/svg" xmlns:xlink="http://www.w3.org/1999/xlink" version="1.1" id="Capa_1" x="0px" y="0px" viewBox="0 0 186 216" style="enable-background:new 0 0 186 216;" xml:space="preserve">
<style type="text/css">
	.st0{fill:#329A2C;}
</style>
<path class="st0" d="M115.9,3.9c15.4,7.2,22.1,25.5,14.9,40.9L59.7,197.2c-7.2,15.4-25.5,22.1-40.9,14.9  c-15.4-7.2-22.1-25.5-14.9-40.9l71-152.4C82.1,3.4,100.5-3.3,115.9,3.9 M165.1,101.2c-15.4-7.2-33.7-0.5-40.9,14.9l-25.7,55.1  c-7.2,15.4-0.5,33.7,14.9,40.9s33.7,0.5,40.9-14.9l25.7-55.1C187.2,126.7,180.5,108.4,165.1,101.2"></path>
</svg>
