<?xml version="1.0" encoding="UTF-8"?>
<svg xmlns="http://www.w3.org/2000/svg" x="0px" y="0px" viewBox="0 0 70 70" fill="none" xml:space="preserve">
<rect x="3" y="3" width="64" height="64" rx="32" stroke="#329A2C" stroke-width="6"></rect>
<path d="M51.3125 27.3125C52.0625 29.9375 52.0625 35.5625 52.0625 35.5625C52.0625 35.5625 52.0625 41.125 51.3125 43.8125C50.9375 45.3125 49.75 46.4375 48.3125 46.8125C45.625 47.5 35 47.5 35 47.5C35 47.5 24.3125 47.5 21.625 46.8125C20.1875 46.4375 19 45.3125 18.625 43.8125C17.875 41.125 17.875 35.5625 17.875 35.5625C17.875 35.5625 17.875 29.9375 18.625 27.3125C19 25.8125 20.1875 24.625 21.625 24.25C24.3125 23.5 35 23.5 35 23.5C35 23.5 45.625 23.5 48.3125 24.25C49.75 24.625 50.9375 25.8125 51.3125 27.3125ZM31.5 40.625L40.375 35.5625L31.5 30.5V40.625Z" fill="#329A2C"></path>
</svg>
