<?xml version="1.0" encoding="UTF-8"?>
<svg xmlns="http://www.w3.org/2000/svg" xmlns:xlink="http://www.w3.org/1999/xlink" version="1.1" id="Capa_1" x="0px" y="0px" viewBox="0 0 40 38" style="enable-background:new 0 0 40 38;" xml:space="preserve">
<style type="text/css">
	.st0{fill:#FFFFFF;}
</style>
<path class="st0" d="M31.6,21.3c0,0-1.6-2.7-1.6-4.6V10c0-5.7-3.1-9.1-8.3-9.1c-5.8,0-9,2.3-10,7.3l-0.2,0.8l6.6,1.1l0.2-0.8  c0.3-1.3,1-1.9,2.5-1.9c1.1,0,2.3,0.3,2.5,2.6c-1.7,0.1-5.6,0.6-7.8,1.7c-3.1,1.5-4.6,4-4.6,7.4c0,4,2.7,6.7,6.7,6.7  c3.7,0,5.7-1.1,6.7-2.1c1.3,1.2,2.9,2,2.9,2l0.5,0.3l4.2-4.2L31.6,21.3z M20,20.1c-1.1,0-1.7-0.6-1.7-1.7c0-2.6,3-3.2,5-3.3  C23,18.8,20.5,20.1,20,20.1z"></path>
<path class="st0" d="M10.8,19.3c0,4,2.7,6.7,6.7,6.7c3.7,0,5.7-1.1,6.7-2.1c1.3,1.2,2.9,2,2.9,2l0.5,0.3l4.2-4.2l-0.3-0.6  c0,0-1.6-2.7-1.6-4.6V10c0-5.7-3.1-9.1-8.3-9.1c-5.8,0-9,2.3-10,7.3l-0.2,0.8l6.6,1.1l0.2-0.8c0.3-1.3,1-1.9,2.5-1.9  c1.1,0,2.3,0.3,2.5,2.6c-1.7,0.1-5.6,0.6-7.8,1.7C12.3,13.4,10.8,15.8,10.8,19.3z M23.3,15.1c-0.3,3.6-2.7,5-3.3,5  c-1.1,0-1.7-0.6-1.7-1.7C18.3,15.9,21.3,15.2,23.3,15.1z M35.9,30.4c-0.2-0.3-0.6-0.4-0.9-0.3c-0.1,0-7.8,2.5-15,2.5  c-7.7,0-16.4-2.6-18.6-4.8c-0.3-0.3-0.8-0.3-1.2,0c-0.3,0.3-0.4,0.8-0.1,1.2c0.3,0.4,7.6,8.6,19.8,8.6c12.2,0,15.8-5.9,15.9-6.2  C36.1,31.1,36.1,30.7,35.9,30.4z M36.7,26.8c-2.1,0-4.4,0.9-4.5,0.9c-0.4,0.1-0.6,0.5-0.5,0.9c0.1,0.4,0.4,0.7,0.8,0.7  c1.6,0.1,3.5,0.4,4.1,0.6c0,0.7-0.3,2.6-0.7,4.2c-0.1,0.4,0.1,0.8,0.4,0.9c0.1,0.1,0.2,0.1,0.4,0.1c0.2,0,0.5-0.1,0.6-0.3  c0.3-0.3,2.7-3.4,2.7-5.5C40,26.8,37.5,26.8,36.7,26.8z"></path>
</svg>
