<svg xmlns="http://www.w3.org/2000/svg" x="0px" y="0px" width="18" height="32" viewBox="0 0 18 32" fill="none" xml:space="preserve"><path d="M17.3179 8.49396H13.3833C13.2468 8.49396 13.1191 8.46625 13.1191 8.60201V12.5364C13.1191 12.6724 13.2468 12.7449 13.3833 12.7449H14.3694V15.9077L9.86834 20.3208V7.24368H11.639C11.6406 7.24368 11.6426 7.24368 11.6426 7.24368C11.7801 7.24368 11.8899 7.06928 11.8899 6.93352C11.8899 6.88395 11.8755 6.80539 11.8503 6.76649L9.18269 0.161688C9.14506 0.0691496 9.05456 0 8.9549 0C8.85448 0 8.76423 0.0566925 8.72712 0.149485L6.04248 6.7787C6.01172 6.85471 6.02062 7.00445 6.06638 7.07207C6.11214 7.13995 6.18841 7.24393 6.27027 7.24393H7.86783V24.9958L3.61691 20.5677V15.9949C4.36713 15.623 4.81737 14.8621 4.81737 14.0127C4.81737 12.7919 3.80961 11.7989 2.58907 11.7989C1.36802 11.7989 0.380859 12.7917 0.380859 14.0127C0.380859 14.8621 0.866433 15.623 1.61665 15.9949V20.975C1.61665 21.038 1.60928 21.1026 1.62199 21.1692C1.62733 21.1938 1.62835 21.2172 1.63598 21.2406L1.64131 21.2683C1.64869 21.2958 1.6553 21.3235 1.66623 21.351C1.67869 21.3797 1.69216 21.4069 1.70741 21.4341L1.7214 21.459C1.73182 21.4801 1.74224 21.5012 1.75597 21.521C1.79309 21.577 1.83478 21.6276 1.87876 21.6713L7.3365 27.1288C6.66483 27.6377 6.25832 28.4401 6.25832 29.2892C6.25832 30.784 7.47429 32 8.96939 32C10.464 32 11.6372 30.784 11.6372 29.2892C11.6372 28.1594 10.8682 27.1656 9.86808 26.7627V23.1033L16.0013 17.0123C16.046 16.9678 16.1101 16.9167 16.1467 16.8611C16.1607 16.8415 16.1821 16.8204 16.193 16.799L16.2118 16.7739C16.2273 16.7464 16.2451 16.7184 16.2565 16.6905C16.2675 16.6638 16.2769 16.6361 16.2848 16.6084L16.2932 16.5809C16.301 16.5573 16.327 16.5339 16.3323 16.5069C16.3448 16.4429 16.3692 16.378 16.3692 16.3152V12.7449H17.3174C17.4534 12.7449 17.6194 12.6724 17.6194 12.5364V8.60201C17.6197 8.46625 17.4539 8.49396 17.3179 8.49396Z" fill="white"></path></svg>