<svg xmlns="http://www.w3.org/2000/svg" x="0px" y="0px" viewBox="0 0 32 32" fill="none" xml:space="preserve"><g clip-path="url(#clip0_183_5400)"><path d="M21.9983 0C20.2923 0.117999 18.2984 1.20999 17.1364 2.63198C16.0764 3.92198 15.2044 5.83797 15.5444 7.69995C17.4084 7.75795 19.3344 6.63996 20.4503 5.19397C21.4943 3.84798 22.2843 1.94399 21.9983 0Z" fill="white"></path><path d="M28.7401 10.736C27.1021 8.68198 24.8001 7.48999 22.6261 7.48999C19.7562 7.48999 18.5422 8.86398 16.5482 8.86398C14.4922 8.86398 12.9302 7.49399 10.4482 7.49399C8.01022 7.49399 5.41424 8.98398 3.76825 11.532C1.45426 15.1199 1.85026 21.8659 5.60024 27.6119C6.94223 29.6679 8.73422 31.9798 11.0782 31.9998C13.1642 32.0198 13.7522 30.6619 16.5782 30.6479C19.4042 30.6319 19.9402 32.0178 22.0221 31.9958C24.3681 31.9778 26.2581 29.4159 27.6001 27.3599C28.5621 25.8859 28.9201 25.1439 29.6661 23.4799C24.2401 21.4139 23.3701 13.698 28.7401 10.736Z" fill="white"></path></g><defs><clipPath id="clip0_183_5400"><rect width="32" height="32" fill="white"></rect></clipPath></defs></svg>