<?xml version="1.0" encoding="UTF-8"?>
<svg xmlns="http://www.w3.org/2000/svg" x="0px" y="0px" viewBox="0 0 70 70" fill="none" xml:space="preserve">
<rect x="3" y="3" width="64" height="64" rx="32" stroke="#329A2C" stroke-width="6"></rect>
<path d="M50.5 35.5C50.5 43.25 44.8125 49.6875 37.375 50.8125V40H41L41.6875 35.5H37.375V32.625C37.375 31.375 38 30.1875 39.9375 30.1875H41.875V26.375C41.875 26.375 40.125 26.0625 38.375 26.0625C34.875 26.0625 32.5625 28.25 32.5625 32.125V35.5H28.625V40H32.5625V50.8125C25.125 49.6875 19.5 43.25 19.5 35.5C19.5 26.9375 26.4375 20 35 20C43.5625 20 50.5 26.9375 50.5 35.5Z" fill="#329A2C"></path>
</svg>
