<svg xmlns="http://www.w3.org/2000/svg" xmlns:xlink="http://www.w3.org/1999/xlink" x="0px" y="0px" viewBox="0 0 81 81" style="enable-background:new 0 0 81 81;" xml:space="preserve"><style type="text/css">	.st0{fill:none;}	.st1{fill:#329A2C;}</style><path class="st0" d="M81,19V0H0v26h70v-7"></path><path class="st1" d="M75.1,71c0,4.2-3.4,7.6-7.6,7.6h-55C8.4,78.5,5,75.1,5,71V10.6C5,6.4,8.4,3,12.6,3h55c4.2,0,7.6,3.4,7.6,7.6  v14.1c0,2.1-1.7,3.8-3.8,3.8h-7.6c-1.8,0-3.2-1.4-3.2-3.2v-3.8c0-2.1-1.7-3.8-3.8-3.8H27.2c-4.2,0-7.6,3.4-7.6,7.6v8.2l12.7,12.7  v10.2c0,4.2,3.4,7.6,7.6,7.6h16.8c2.1,0,3.8-1.7,3.8-3.8v-1.9c0-2.1,1.7-3.8,3.8-3.8h7.1c2.1,0,3.8,1.7,3.8,3.8V71z"></path></svg>